<?xml version="1.0" standalone="no"?>
<!DOCTYPE svg PUBLIC "-//W3C//DTD SVG 20010904//EN"
 "http://www.w3.org/TR/2001/REC-SVG-20010904/DTD/svg10.dtd">
<svg version="1.0" xmlns="http://www.w3.org/2000/svg"
 width="120.000000pt" height="120.000000pt" viewBox="0 0 120.000000 120.000000"
 preserveAspectRatio="xMidYMid meet">
<metadata>
Created by potrace 1.11, written by Peter Selinger 2001-2013
</metadata>
<g transform="translate(0.000000,120.000000) scale(0.100000,-0.100000)"
fill="#000000" stroke="none">
<path d="M2 1122 c8 -136 67 -232 180 -293 59 -31 71 -34 183 -39 l120 -5 3
-128 3 -129 -59 -63 c-67 -71 -92 -129 -92 -209 1 -91 59 -183 145 -229 56
-30 174 -30 230 0 86 46 144 138 145 229 0 80 -25 138 -91 209 -33 34 -59 69
-59 78 0 12 22 15 113 20 139 6 191 24 262 89 76 69 108 137 113 246 l5 84
-204 -4 c-176 -4 -211 -7 -257 -25 l-52 -21 -21 41 c-27 53 -110 140 -163 171
-80 46 -136 56 -329 56 l-180 0 5 -78z m405 -18 c127 -43 203 -139 228 -287
l6 -37 32 33 c18 19 52 45 77 58 41 22 59 24 208 27 l162 4 0 -29 c-2 -80 -58
-160 -143 -203 -58 -29 -65 -30 -199 -30 l-138 0 0 -187 0 -187 55 54 54 54
16 -37 c28 -67 16 -148 -28 -195 -74 -80 -200 -80 -274 0 -44 47 -56 128 -28
195 l16 37 54 -54 55 -54 0 277 c0 256 -1 278 -18 295 -16 16 -40 20 -144 24
-107 5 -131 9 -174 31 -27 14 -61 38 -76 54 -33 35 -67 109 -68 146 l0 27 140
0 c102 0 152 -4 187 -16z"/>
</g>
</svg>
