# Blender v2.79 (sub 0) OBJ File: 'fence.blend'
# www.blender.org
mtllib fence.mtl
o fence_Cube
v 15.864163 -0.314281 -15.864163
v 15.864163 -0.314281 15.864163
v -15.864164 -0.314281 15.864159
v -15.864157 -0.314281 -15.864169
v 15.864170 31.414045 -15.864157
v 15.864154 31.414045 15.864173
v -15.864169 31.414045 15.864158
v -15.864161 31.414045 -15.864163
vt 0.002854 0.935406
vt 0.075944 0.938204
vt 0.069924 0.986964
vt 0.000000 1.000000
vt 0.983333 0.970370
vt 0.864583 0.981481
vt 0.829167 0.922222
vt 0.964583 0.929630
vt 0.441667 -0.007407
vt 0.395833 0.833333
vt 0.235417 0.837037
vt 0.252083 0.011111
vt 0.662500 -0.003704
vt 0.654167 0.844444
vt 0.412500 0.829630
vt 0.443750 -0.003704
vt 0.957933 -0.009641
vt 0.972917 0.884720
vt 0.679167 0.855556
vt 0.679167 0.007407
vt 0.020833 0.851852
vt 0.012500 0.033333
vt 0.232021 0.038498
vt 0.219177 0.843278
vn 0.0000 -1.0000 0.0000
vn 0.0000 1.0000 0.0000
vn 1.0000 0.0000 0.0000
vn -0.0000 -0.0000 1.0000
vn -1.0000 -0.0000 -0.0000
vn 0.0000 0.0000 -1.0000
usemtl Material
s off
f 1/1/1 2/2/1 3/3/1 4/4/1
f 5/5/2 8/6/2 7/7/2 6/8/2
f 1/9/3 5/10/3 6/11/3 2/12/3
f 2/13/4 6/14/4 7/15/4 3/16/4
f 3/17/5 7/18/5 8/19/5 4/20/5
f 5/21/6 1/22/6 4/23/6 8/24/6
